<?xml version="1.0" standalone="no"?><!DOCTYPE svg PUBLIC "-//W3C//DTD SVG 1.1//EN" "http://www.w3.org/Graphics/SVG/1.1/DTD/svg11.dtd"><svg t="1587020361118" class="icon" viewBox="0 0 1024 1024" version="1.1" xmlns="http://www.w3.org/2000/svg" p-id="9962" xmlns:xlink="http://www.w3.org/1999/xlink" width="200" height="200"><defs><style type="text/css"></style></defs><path d="M804.9 773.9H380.6c-24.2 0-45.6-16.3-52.1-39.7l-145.2-525H93.2c-16.5 0-29.9-13.4-29.9-29.9s13.4-29.9 29.9-29.9h94.6c24.2 0 45.6 16.3 52.1 39.7l145.2 525h415.4l95.2-395.2H395.5c-16.5 0-29.9-13.4-29.9-29.9s13.4-29.9 29.9-29.9h528.4c11.6 0 22.3 5.2 29.5 14.3 7.2 9.1 9.7 20.7 7 32L857.5 732.5c-5.9 24.4-27.5 41.4-52.6 41.4zM187.8 209.2h0.2-0.2z" fill="#FC592D" p-id="9963"></path><path d="M460.8 883.3c-22.5 0-40.8-18.3-40.8-40.8s18.3-40.8 40.8-40.8 40.8 18.3 40.8 40.8-18.3 40.8-40.8 40.8zM727.9 883.3c-22.5 0-40.8-18.3-40.8-40.8s18.3-40.8 40.8-40.8 40.8 18.3 40.8 40.8-18.3 40.8-40.8 40.8z" fill="#FFCE00" p-id="9964"></path></svg>